<svg width="44" height="44" viewBox="0 0 44 44" fill="none" xmlns="http://www.w3.org/2000/svg">
<path d="M22.341 10.4576C22.7775 10.7572 23.0032 11.2298 23.2469 11.6838C23.319 11.8181 23.3917 11.9521 23.4644 12.0862C23.759 12.6305 24.046 13.178 24.32 13.7331C24.3365 13.7662 24.353 13.7993 24.37 13.8334C24.4001 13.8954 24.429 13.9579 24.4563 14.0211C24.6267 14.4021 24.8952 14.5423 25.2733 14.6897C25.3637 14.7241 25.4542 14.758 25.5448 14.7918C25.6309 14.8245 25.717 14.8574 25.8031 14.8905C25.864 14.9137 25.925 14.9366 25.9863 14.9591C26.1549 15.0218 26.316 15.0895 26.4756 15.1727C27.1683 15.5191 27.8477 15.5092 28.6018 15.4986C28.7783 15.4966 28.9547 15.4969 29.1312 15.4971C29.4641 15.497 29.797 15.4953 30.13 15.4927C30.7276 15.488 31.3253 15.4852 31.923 15.4848C32.1323 15.4846 32.3416 15.4832 32.5509 15.4809C32.6808 15.4797 32.8106 15.4793 32.9404 15.4792C33.0005 15.4789 33.0605 15.4783 33.1205 15.4772C33.6302 15.4688 33.6302 15.4688 33.7979 15.6021C33.92 15.75 33.9219 15.8227 33.9093 16.0067C33.8807 16.1355 33.8272 16.1916 33.7196 16.2654C33.5952 16.3068 33.5161 16.3131 33.3866 16.3129C33.3442 16.313 33.3019 16.3131 33.2582 16.3131C33.2118 16.313 33.1654 16.3128 33.1176 16.3127C33.0687 16.3127 33.0198 16.3127 32.9694 16.3127C32.8073 16.3126 32.6453 16.3123 32.4832 16.312C32.371 16.3119 32.2588 16.3118 32.1466 16.3118C31.8812 16.3117 31.6158 16.3113 31.3505 16.3109C31.0483 16.3104 30.7462 16.3102 30.444 16.31C29.8225 16.3095 29.201 16.3088 28.5795 16.3078C28.5669 16.3336 28.5543 16.3594 28.5413 16.386C28.426 16.6122 28.3079 16.713 28.0739 16.7972C27.9848 16.8176 27.9848 16.8176 27.7724 16.8176C28.0387 17.4905 28.3051 18.1634 28.5795 18.8567C28.7617 18.8286 28.944 18.8006 29.1317 18.7717C29.3213 18.7577 29.5098 18.7575 29.6999 18.7584C29.7501 18.7586 29.8003 18.7588 29.852 18.7591C30.2224 18.764 30.5588 18.7952 30.9159 18.8991C30.9678 18.9136 31.0198 18.9281 31.0732 18.943C32.2697 19.3073 33.2498 20.1416 33.846 21.2349C34.4007 22.3256 34.4502 23.5959 34.1184 24.7616C33.9468 25.2829 33.6903 25.7852 33.3373 26.2058C33.2929 26.259 33.2929 26.259 33.2475 26.3133C32.4773 27.1999 31.5201 27.7324 30.3637 27.905C29.725 27.9441 29.1051 27.9351 28.4945 27.7351C28.446 27.7192 28.3975 27.7033 28.3475 27.687C27.1093 27.2428 26.2168 26.3574 25.6481 25.192C25.146 24.1141 25.1304 22.8291 25.5262 21.7188C25.7573 21.1075 26.1017 20.611 26.5404 20.1311C26.5697 20.0988 26.599 20.0665 26.6292 20.0332C26.8422 19.8093 27.0833 19.6119 27.3476 19.4514C27.3896 19.4514 27.4317 19.4514 27.475 19.4514C27.5264 19.574 27.5765 19.6972 27.6263 19.8204C27.6482 19.8725 27.6482 19.8725 27.6704 19.9256C27.7272 20.0672 27.7723 20.182 27.7725 20.3355C27.715 20.4608 27.6395 20.524 27.5334 20.6116C26.8774 21.1801 26.3839 22.036 26.3202 22.9155C26.2674 24.0024 26.5285 24.9594 27.2626 25.781C27.8275 26.3734 28.6596 26.8283 29.4893 26.8614C29.5852 26.8624 29.6811 26.8625 29.7769 26.8616C29.8275 26.8612 29.878 26.8607 29.9301 26.8603C30.873 26.8414 31.6503 26.4763 32.3247 25.8188C32.9863 25.1189 33.3124 24.189 33.304 23.2366C33.266 22.2481 32.8064 21.3574 32.1001 20.678C31.4286 20.0857 30.6117 19.8241 29.7265 19.8204C29.6844 19.8202 29.6422 19.82 29.5988 19.8197C29.3806 19.8219 29.2112 19.8429 29.0043 19.9187C29.0233 19.9664 29.0423 20.0142 29.0618 20.0634C29.2683 20.5833 29.4739 21.1035 29.6787 21.624C29.7096 21.7026 29.7406 21.7811 29.7716 21.8597C29.8521 22.0639 29.9323 22.2683 30.0116 22.473C30.0356 22.5345 30.0596 22.5959 30.0839 22.6573C30.1174 22.7424 30.1504 22.8277 30.1833 22.913C30.2018 22.9606 30.2204 23.0081 30.2395 23.0571C30.2802 23.1945 30.2895 23.3021 30.2787 23.4446C30.209 23.5715 30.112 23.6766 29.9814 23.7419C29.8255 23.7566 29.7204 23.7616 29.581 23.6863C29.4152 23.5131 29.3494 23.3108 29.2643 23.0891C29.2453 23.0409 29.2262 22.9927 29.2065 22.9431C29.1553 22.8134 29.1047 22.6834 29.0542 22.5534C29.0018 22.4187 28.9487 22.2842 28.8956 22.1497C28.8125 21.9389 28.7297 21.728 28.6472 21.5169C28.5185 21.1878 28.3874 20.8598 28.2556 20.532C28.2176 20.437 28.1797 20.3419 28.1418 20.2469C28.0685 20.0636 27.9947 19.8805 27.9205 19.6976C27.8721 19.5781 27.8238 19.4585 27.7755 19.3389C27.7525 19.2818 27.7293 19.2248 27.706 19.1677C27.6742 19.0896 27.6426 19.0114 27.6111 18.9332C27.593 18.8885 27.5749 18.8439 27.5562 18.798C27.5175 18.6867 27.5175 18.6867 27.5175 18.5593C27.4895 18.5593 27.4614 18.5593 27.4325 18.5593C27.4213 18.5842 27.41 18.6092 27.3984 18.6349C27.3459 18.7324 27.2897 18.7997 27.2133 18.8796C27.1868 18.9075 27.1603 18.9355 27.1329 18.9643C27.1048 18.9936 27.0766 19.0229 27.0475 19.0531C26.9894 19.1144 26.9312 19.1757 26.8731 19.237C26.845 19.2666 26.8169 19.2962 26.788 19.3267C26.6313 19.4927 26.4799 19.6633 26.328 19.8337C26.2626 19.9063 26.1971 19.9789 26.1316 20.0514C26.0199 20.1754 25.9091 20.2999 25.7997 20.4258C25.6444 20.6041 25.4848 20.7784 25.3254 20.9531C25.2426 21.0446 25.1609 21.1369 25.0802 21.2303C24.8877 21.4514 24.6877 21.6657 24.4881 21.8805C24.4392 21.9332 24.3903 21.986 24.3414 22.0388C24.1911 22.201 24.04 22.3625 23.8883 22.5234C23.8286 22.5875 23.7704 22.653 23.7125 22.7187C23.5659 22.8796 23.4573 22.9951 23.2376 23.033C23.096 23.0355 23.0562 23.0193 22.9296 22.9428C22.8274 22.8309 22.8054 22.7849 22.7809 22.6348C22.8292 22.2544 23.2025 21.968 23.4555 21.6959C23.543 21.6012 23.6286 21.5057 23.7128 21.4081C23.8668 21.2305 24.027 21.0587 24.1868 20.8864C24.3249 20.7372 24.4602 20.586 24.5931 20.4323C24.7155 20.2933 24.8414 20.1576 24.9668 20.0215C25.0743 19.9044 25.1807 19.7867 25.2846 19.6664C25.4386 19.4887 25.5988 19.317 25.7587 19.1446C25.896 18.9963 26.0303 18.846 26.1623 18.693C26.2493 18.5948 26.3385 18.4989 26.4281 18.403C26.6619 18.1525 26.8838 17.8969 27.0927 17.6247C27.0404 17.4854 26.987 17.3466 26.9334 17.2079C26.9112 17.1487 26.9112 17.1487 26.8886 17.0883C26.8664 17.0314 26.8664 17.0314 26.8438 16.9734C26.8238 16.921 26.8238 16.921 26.8033 16.8676C26.7173 16.7101 26.6174 16.66 26.4506 16.6003C26.3988 16.5856 26.347 16.5709 26.2937 16.5557C26.2652 16.5475 26.2367 16.5393 26.2073 16.5309C26.146 16.5132 26.0846 16.4957 26.0231 16.4784C25.8932 16.4416 25.7636 16.4039 25.6339 16.3662C25.5341 16.3372 25.4342 16.3084 25.3343 16.2795C25.0412 16.1947 24.7484 16.109 24.4562 16.0211C24.4064 16.0067 24.3565 15.9922 24.3051 15.9773C23.572 15.7549 23.2577 15.286 22.8526 14.6644C22.6073 14.2921 22.3555 13.9277 22.0878 13.5714C21.9807 13.4281 21.8768 13.2825 21.7722 13.1374C21.7476 13.1042 21.723 13.071 21.6977 13.0368C21.6691 12.9975 21.6406 12.9582 21.6112 12.9177C21.5837 12.8869 21.5561 12.8561 21.5277 12.8244C21.4857 12.8244 21.4436 12.8244 21.4003 12.8244C21.3878 13.0226 21.4149 13.1366 21.5145 13.3076C21.5375 13.3477 21.5606 13.3877 21.5843 13.429C21.6769 13.5827 21.7707 13.7354 21.8676 13.8864C21.6942 14.1354 21.5227 14.371 21.3027 14.5806C21.2006 14.6801 21.1092 14.7877 21.0163 14.8957C20.8833 15.0478 20.745 15.1952 20.6073 15.3431C20.4108 15.5677 20.4108 15.5677 20.3162 15.8445C20.3451 16.0061 20.3977 16.0524 20.5215 16.1592C20.5521 16.1857 20.5521 16.1857 20.5834 16.2128C20.8443 16.4337 21.1241 16.6314 21.4006 16.832C21.6412 17.0072 21.8756 17.1898 22.1096 17.3736C22.2477 17.4819 22.3859 17.5896 22.528 17.6926C22.8644 17.9365 23.1959 18.1853 23.3119 18.6018C23.3565 18.9341 23.3015 19.2356 23.2228 19.5573C23.2135 19.5959 23.2041 19.6345 23.1945 19.6743C23.0807 20.1357 22.943 20.5899 22.8048 21.0444C22.7043 21.377 22.6043 21.7098 22.5048 22.0427C22.4923 22.0844 22.4798 22.1261 22.4669 22.169C22.4304 22.291 22.3944 22.4131 22.3586 22.5352C22.3476 22.5718 22.3366 22.6083 22.3253 22.646C22.2463 22.9135 22.2463 22.9135 22.2499 23.1897C22.3576 23.3303 22.4883 23.4062 22.6427 23.4895C22.7066 23.5246 22.7066 23.5246 22.7717 23.5605C22.8608 23.6088 22.95 23.657 23.0392 23.7052C23.3179 23.8586 23.5162 23.9846 23.6942 24.2517C23.7143 24.4287 23.7053 24.5268 23.6252 24.6871C23.4853 24.8491 23.3812 24.9206 23.164 24.9415C22.7553 24.95 22.3719 24.8798 21.9729 24.7978C21.8595 24.7747 21.746 24.7528 21.6324 24.731C20.7652 24.5595 20.7652 24.5595 20.4843 24.265C20.3141 23.9911 20.3519 23.6539 20.4056 23.3436C20.4404 23.1996 20.4794 23.0574 20.5205 22.915C20.5426 22.8348 20.5648 22.7545 20.5869 22.6743C20.6178 22.5631 20.6494 22.4522 20.681 22.3413C20.72 22.2038 20.7582 22.0661 20.7964 21.9284C20.8561 21.7139 20.9159 21.4994 20.9757 21.2849C20.9899 21.2339 21.0041 21.1829 21.0187 21.1304C21.046 21.0327 21.0734 20.9349 21.1009 20.8372C21.1379 20.7055 21.1741 20.5736 21.2101 20.4415C21.2209 20.4038 21.2317 20.366 21.2428 20.3271C21.325 20.0212 21.3812 19.6932 21.2556 19.3941C21.1029 19.238 20.9352 19.1494 20.7419 19.0505C20.7011 19.0289 20.6603 19.0074 20.6183 18.9852C20.5296 18.9383 20.4408 18.8917 20.3519 18.8454C20.1319 18.7305 19.9131 18.6134 19.6943 18.4962C19.6439 18.4692 19.5934 18.4422 19.5429 18.4152C17.1063 17.1122 17.1063 17.1122 16.8124 16.3078C16.7832 16.2096 16.7832 16.2096 16.7699 16.0954C16.7667 16.0678 16.7635 16.0402 16.7601 16.0118C16.6706 14.559 18.1897 13.0528 19.0639 12.0598C19.165 11.9474 19.2672 11.836 19.3699 11.7251C19.4764 11.6101 19.5806 11.4938 19.6825 11.3748C20.3675 10.5927 21.2885 9.82689 22.341 10.4576Z" fill="#B42315"/>
<path d="M19.3005 18.7212C19.4703 18.7799 19.6156 18.8557 19.7439 18.984C19.7676 19.1531 19.7823 19.2631 19.6895 19.41C19.612 19.4989 19.5312 19.5816 19.4465 19.6637C19.4185 19.6918 19.3905 19.7198 19.3616 19.7487C19.305 19.8053 19.2482 19.8617 19.1913 19.9179C18.9213 20.1892 18.9213 20.1892 18.7244 20.5133C18.7445 20.5377 18.7646 20.5621 18.7853 20.5872C19.444 21.4334 19.7135 22.4258 19.6589 23.487C19.7855 23.4849 19.7855 23.4849 19.912 23.4828C19.9988 23.487 19.9988 23.487 20.1262 23.5294C20.1262 23.8238 20.1262 24.1182 20.1262 24.4215C19.93 24.4215 19.7337 24.4215 19.5315 24.4215C19.5166 24.4986 19.5017 24.5757 19.4864 24.6552C19.2388 25.7144 18.5187 26.6593 17.6013 27.2359C16.4849 27.8896 15.2759 28.1294 14.009 27.82C13.3045 27.6296 12.633 27.2993 12.0974 26.8004C12.0646 26.7706 12.0646 26.7706 12.0311 26.7401C11.2715 26.0438 10.8426 25.2056 10.6106 24.2091C10.6029 24.1766 10.5953 24.144 10.5874 24.1105C10.5506 23.8933 10.5585 23.6728 10.5579 23.4531C10.5575 23.3666 10.5562 23.2801 10.5548 23.1936C10.5455 22.0466 10.9902 21.0517 11.7576 20.216C11.7886 20.1815 11.8195 20.147 11.8515 20.1114C12.6132 19.3044 13.7181 18.8421 14.8162 18.7716C14.846 18.7697 14.8759 18.7678 14.9067 18.7658C16.0055 18.7068 17.0367 19.0526 17.904 19.7258C18.0002 19.8029 18.0002 19.8029 18.1296 19.7912C18.2295 19.7085 18.2295 19.7085 18.3314 19.6C18.3691 19.5612 18.4069 19.5224 18.4457 19.4824C18.5362 19.3858 18.6245 19.2884 18.7111 19.1885C18.7345 19.1616 18.7578 19.1348 18.7819 19.1072C18.8304 19.0512 18.8783 18.9948 18.9256 18.9379C19.1099 18.7312 19.1099 18.7312 19.3005 18.7212Z" fill="#B42315"/>
<path d="M27.8576 19.7061C27.985 19.7485 27.985 19.7485 28.0394 19.8513C28.0575 19.8971 28.0755 19.9428 28.0941 19.99C28.1149 20.0418 28.1356 20.0937 28.157 20.1471C28.1794 20.2045 28.2018 20.2619 28.2241 20.3194C28.2477 20.3787 28.2712 20.438 28.2948 20.4973C28.3573 20.6545 28.4192 20.812 28.481 20.9696C28.5423 21.1255 28.6041 21.2812 28.6658 21.437C28.7142 21.5591 28.7625 21.6813 28.8109 21.8035C28.8228 21.8336 28.8347 21.8637 28.847 21.8946C28.9705 22.2068 29.0934 22.5192 29.214 22.8325C29.2332 22.8819 29.2523 22.9312 29.2721 22.982C29.3076 23.0734 29.3428 23.1648 29.3774 23.2565C29.3931 23.2965 29.4087 23.3365 29.4249 23.3778C29.4381 23.4124 29.4514 23.4471 29.4651 23.4827C29.5239 23.5891 29.5802 23.6372 29.6842 23.6992C29.8646 23.7222 29.9501 23.7198 30.1037 23.6196C30.1957 23.5371 30.1957 23.5371 30.2365 23.4443C30.2215 23.1386 30.1414 22.8893 30.0282 22.6067C30.0115 22.5638 29.9948 22.521 29.9775 22.4768C29.9236 22.3389 29.869 22.2013 29.8143 22.0637C29.7773 21.9695 29.7403 21.8752 29.7034 21.781C29.5985 21.5139 29.4928 21.2471 29.3869 20.9805C29.3603 20.9134 29.3337 20.8464 29.3071 20.7793C29.1932 20.492 29.0784 20.2049 28.9621 19.9185C29.3603 19.653 30.0783 19.7479 30.5287 19.8346C31.4008 20.0354 32.2136 20.5782 32.7106 21.3238C33.029 21.8523 33.3111 22.4345 33.3376 23.062C33.3398 23.1081 33.3419 23.1542 33.3442 23.2017C33.3686 24.1848 33.0216 25.0944 32.3605 25.8232C31.7668 26.4415 30.9615 26.8652 30.0969 26.901C28.962 26.9216 28.1055 26.6403 27.2791 25.8435C26.5798 25.1187 26.2603 24.1772 26.2652 23.1817C26.2944 22.129 26.7834 21.2764 27.5186 20.5477C27.6027 20.4707 27.6027 20.4707 27.7301 20.3857C27.7104 20.2476 27.6861 20.1266 27.6372 19.9955C27.6258 19.956 27.6144 19.9166 27.6027 19.876C27.6307 19.8339 27.6588 19.7919 27.6877 19.7485C27.7157 19.7906 27.7437 19.8326 27.7726 19.876C27.8007 19.8199 27.8287 19.7638 27.8576 19.7061Z" fill="white"/>
<path d="M17.1955 20.4492C17.2533 20.4971 17.3093 20.5473 17.3646 20.5982C17.2061 20.7884 17.0423 20.9663 16.8643 21.1383C16.7883 21.2164 16.718 21.2955 16.6474 21.3783C16.4293 21.6291 16.1947 21.864 15.9606 22.0997C15.907 22.1537 15.8537 22.2079 15.8005 22.2623C15.7228 22.3419 15.6444 22.4209 15.566 22.4998C15.5426 22.5239 15.5193 22.548 15.4953 22.5728C15.3491 22.7182 15.2096 22.8123 15.02 22.8943C14.8785 22.9686 14.8238 23.0378 14.7733 23.1895C14.7516 23.379 14.749 23.5261 14.8397 23.6966C15.085 23.9042 15.4607 23.9057 15.7679 23.9473C15.8447 23.958 15.8447 23.958 15.9231 23.9689C16.0867 23.9916 16.2504 24.014 16.4141 24.0364C16.5218 24.0513 16.6296 24.0662 16.7373 24.0812C16.8956 24.1031 17.054 24.125 17.2123 24.1468C17.6598 24.2085 18.107 24.272 18.554 24.3365C18.1682 25.397 17.5638 26.1698 16.5309 26.6649C15.6647 27.0399 14.6986 27.0165 13.8175 26.7101C12.837 26.3098 12.1752 25.5485 11.7572 24.5913C11.4083 23.7136 11.4784 22.7741 11.8103 21.9045C12.2125 20.9994 12.9406 20.3804 13.8387 20.0035C14.9552 19.5955 16.2264 19.7331 17.1955 20.4492Z" fill="white"/>
<path d="M37.0759 29.9438C37.4403 29.9438 37.8048 29.9438 38.1804 29.9438C38.1804 31.7943 38.1804 33.6447 38.1804 35.5513C37.8299 35.5513 37.4794 35.5513 37.1183 35.5513C37.0973 35.362 37.0973 35.362 37.0759 35.1689C37.0563 35.1884 37.0367 35.2079 37.0165 35.228C36.6306 35.591 36.2214 35.6934 35.7026 35.6875C35.2395 35.6614 34.9285 35.501 34.6132 35.1645C34.2269 34.7012 34.1279 34.1491 34.1314 33.56C34.1316 33.519 34.1319 33.478 34.1321 33.4358C34.142 32.8332 34.3068 32.3053 34.7228 31.8575C35.143 31.4978 35.6125 31.4375 36.1413 31.4731C36.4857 31.5268 36.7872 31.6943 37.0334 31.9404C37.0474 31.2816 37.0614 30.6227 37.0759 29.9438Z" fill="#B42315"/>
<path d="M28.4653 31.8845C28.8482 32.1957 29.1087 32.6389 29.1744 33.13C29.2262 33.8247 29.1513 34.4522 28.7114 35.0179C28.3347 35.4317 27.8099 35.6596 27.2573 35.6893C26.6444 35.7116 26.1354 35.5793 25.65 35.1865C25.2255 34.7918 25.0394 34.2674 25.0045 33.699C24.9853 33.0694 25.1419 32.5062 25.5715 32.0335C26.3672 31.3038 27.599 31.2542 28.4653 31.8845Z" fill="#B42315"/>
<path d="M32.9118 31.8258C33.3527 32.1953 33.6291 32.5974 33.7199 33.1723C33.7702 33.8682 33.6794 34.4825 33.2276 35.0398C32.8721 35.4228 32.3631 35.6664 31.8413 35.6887C31.1788 35.704 30.6479 35.5821 30.1408 35.1251C29.6989 34.6623 29.5413 34.1338 29.547 33.5097C29.5617 32.9104 29.758 32.4286 30.1759 31.991C30.89 31.3459 32.1269 31.2452 32.9118 31.8258Z" fill="#B42315"/>
<path d="M32.225 12.6834C32.8407 13.1735 33.2423 13.8681 33.3375 14.6508C33.3381 14.7357 33.3382 14.8207 33.3375 14.9056C32.4519 14.909 31.5665 14.9007 30.681 14.8898C30.5281 14.888 30.3751 14.8862 30.2221 14.8845C29.32 14.8746 28.419 14.8596 27.5176 14.8207C27.5129 14.1135 27.787 13.5111 28.2511 12.9837C29.2983 11.9275 31.0277 11.7805 32.225 12.6834Z" fill="#B42315"/>
<path d="M19.9017 31.7215C20.2265 31.9847 20.4417 32.3324 20.5084 32.7475C20.512 32.8426 20.5134 32.9378 20.5132 33.0329C20.5132 33.0607 20.5132 33.0885 20.5132 33.1171C20.5132 33.2084 20.5129 33.2996 20.5125 33.3909C20.5125 33.4544 20.5124 33.5179 20.5124 33.5814C20.5122 33.7481 20.5118 33.9148 20.5113 34.0815C20.5109 34.2518 20.5107 34.4221 20.5105 34.5924C20.51 34.9262 20.5093 35.26 20.5084 35.5937C20.1579 35.5937 19.8075 35.5937 19.4464 35.5937C19.4254 35.4045 19.4254 35.4045 19.4039 35.2114C19.3448 35.2692 19.3448 35.2692 19.2844 35.3282C18.8858 35.671 18.3356 35.7107 17.8321 35.6787C17.5337 35.6293 17.2795 35.5154 17.0675 35.2964C16.8047 34.9139 16.7824 34.5575 16.8126 34.1069C16.8702 33.8494 17.0356 33.6888 17.2455 33.5377C17.9076 33.1602 18.6646 33.1591 19.4039 33.1724C19.359 32.827 19.359 32.827 19.1915 32.5351C18.9259 32.3993 18.6209 32.3468 18.3333 32.4371C18.1245 32.5295 18.0389 32.6362 17.9171 32.8325C17.802 32.8193 17.687 32.806 17.5719 32.7927C17.5396 32.789 17.5073 32.7853 17.474 32.7815C17.295 32.7606 17.1176 32.7365 16.94 32.7051C16.9577 32.3701 17.161 32.0818 17.402 31.8608C18.0407 31.3447 19.2179 31.2568 19.9017 31.7215Z" fill="#B42315"/>
<path d="M12.6919 29.9438C13.0704 29.9438 13.4489 29.9438 13.8389 29.9438C13.8529 30.9952 13.8669 32.0466 13.8813 33.1299C14.0706 32.8986 14.0706 32.8986 14.2637 32.6626C14.3549 32.5622 14.4461 32.4631 14.5398 32.3652C14.7466 32.146 14.9415 31.9215 15.1299 31.686C15.1982 31.6006 15.1982 31.6006 15.2407 31.5581C15.3416 31.5544 15.4413 31.5532 15.5422 31.554C15.5874 31.554 15.5874 31.554 15.6335 31.5541C15.73 31.5544 15.8265 31.5549 15.9231 31.5555C15.9884 31.5557 16.0537 31.5559 16.119 31.556C16.2793 31.5565 16.4397 31.5572 16.6001 31.5581C16.2761 31.9363 15.9461 32.3075 15.6075 32.6727C15.4886 32.801 15.37 32.9296 15.2513 33.0582C15.2082 33.1049 15.1651 33.1517 15.1219 33.1984C15.091 33.2319 15.0601 33.2653 15.0283 33.2998C15.0964 33.5239 15.2401 33.6856 15.3841 33.8653C15.4382 33.9339 15.4923 34.0025 15.5464 34.0711C15.5736 34.1055 15.6007 34.14 15.6287 34.1755C15.7673 34.3527 15.9014 34.5331 16.0357 34.7135C16.1371 34.8496 16.2393 34.9849 16.3439 35.1187C16.3638 35.1442 16.3837 35.1697 16.4042 35.196C16.4418 35.244 16.4796 35.2919 16.5175 35.3396C16.6426 35.4995 16.6426 35.4995 16.6426 35.5938C16.4568 35.6065 16.2712 35.6157 16.0851 35.6218C16.0221 35.6243 15.959 35.6278 15.896 35.6322C15.377 35.6679 15.377 35.6679 15.1548 35.4922C15.0407 35.3659 14.9503 35.2269 14.8584 35.084C14.8061 35.0142 14.7535 34.9447 14.7003 34.8756C14.6528 34.8106 14.6055 34.7456 14.5584 34.6804C14.3352 34.374 14.1089 34.0704 13.8813 33.7671C13.8673 34.3699 13.8533 34.9727 13.8389 35.5938C13.4604 35.5938 13.0819 35.5938 12.6919 35.5938C12.6919 33.7293 12.6919 31.8648 12.6919 29.9438Z" fill="#B42315"/>
<path d="M21.3579 30.1138C22.5074 30.1138 23.657 30.1138 24.8413 30.1138C24.8413 30.4642 24.8413 30.8147 24.8413 31.1758C24.0703 31.1758 23.2993 31.1758 22.5049 31.1758C22.5049 31.5963 22.5049 32.0169 22.5049 32.4502C23.1918 32.4502 23.8787 32.4502 24.5864 32.4502C24.5864 32.7726 24.5864 33.095 24.5864 33.4272C23.8995 33.4272 23.2126 33.4272 22.5049 33.4272C22.5049 34.1422 22.5049 34.8571 22.5049 35.5938C22.1264 35.5938 21.7479 35.5938 21.3579 35.5938C21.3579 33.7854 21.3579 31.977 21.3579 30.1138Z" fill="#B42315"/>
<path d="M6.19238 30.1138C7.59424 30.1138 8.99609 30.1138 10.4404 30.1138C10.4404 30.4642 10.4404 30.8147 10.4404 31.1758C9.93576 31.1758 9.43109 31.1758 8.91113 31.1758C8.91113 32.6197 8.91113 34.0636 8.91113 35.5513C8.53263 35.5513 8.15413 35.5513 7.76416 35.5513C7.76416 34.0933 7.76416 32.6354 7.76416 31.1333C7.24547 31.1333 6.72679 31.1333 6.19238 31.1333C6.19238 30.7969 6.19238 30.4604 6.19238 30.1138Z" fill="#B42315"/>
<path d="M25.5036 6.58657C25.9043 6.90244 26.2235 7.30112 26.328 7.81164C26.3744 7.81602 26.4208 7.8204 26.4687 7.82491C26.6971 7.8528 26.9147 7.91714 27.1351 7.98156C27.1643 8.10104 27.1643 8.10104 27.1776 8.23644C27.13 8.30683 27.13 8.30683 27.0501 8.36388C26.9396 8.3851 26.9396 8.3851 26.8046 8.39258C26.7282 8.39721 26.7282 8.39721 26.6503 8.40192C26.5946 8.40465 26.5389 8.40737 26.4815 8.41018C26.4225 8.41346 26.3636 8.41679 26.3047 8.42015C26.1143 8.43073 25.9238 8.43993 25.7332 8.44885C25.6858 8.45108 25.6858 8.45108 25.6374 8.45337C25.1816 8.47474 24.7256 8.49338 24.2695 8.51128C24.0025 8.52179 23.7355 8.53256 23.4685 8.54335C23.4047 8.54593 23.3409 8.5485 23.277 8.55107C22.8211 8.56945 22.3654 8.5904 21.91 8.61877C21.8801 7.94048 22.0256 7.42649 22.4636 6.90096C23.2331 6.07565 24.5777 5.91171 25.5036 6.58657Z" fill="#B42315"/>
<path d="M26.1157 8.8309C26.1559 9.26227 25.9854 9.67371 25.7264 10.0114C25.7007 10.0424 25.675 10.0734 25.6484 10.1053C25.6262 10.1328 25.604 10.1603 25.5811 10.1886C25.2868 10.5173 24.8283 10.7156 24.3934 10.7568C23.8498 10.7626 23.4485 10.6447 23.0146 10.3177C22.9778 10.2932 22.9411 10.2687 22.9031 10.2434C22.562 9.92018 22.3474 9.49768 22.25 9.0433C22.4278 9.00204 22.6036 8.98919 22.7853 8.9804C22.8171 8.97874 22.8489 8.97707 22.8817 8.97536C22.9864 8.96992 23.0912 8.96471 23.196 8.9595C23.2692 8.95577 23.3424 8.95202 23.4155 8.94826C23.5688 8.94041 23.7221 8.93267 23.8754 8.92502C24.0713 8.91523 24.2671 8.90524 24.4629 8.89516C24.614 8.88741 24.7652 8.87974 24.9163 8.8721C24.9885 8.86844 25.0606 8.86477 25.1328 8.86107C25.234 8.8559 25.3353 8.85085 25.4365 8.84582C25.4659 8.8443 25.4954 8.84278 25.5257 8.84121C25.7227 8.8316 25.9186 8.82966 26.1157 8.8309Z" fill="#B42315"/>
<path d="M10.9077 31.5581C11.2722 31.5581 11.6367 31.5581 12.0122 31.5581C12.0122 32.8899 12.0122 34.2216 12.0122 35.5938C11.6477 35.5938 11.2832 35.5938 10.9077 35.5938C10.9077 34.262 10.9077 32.9302 10.9077 31.5581Z" fill="#B42315"/>
<path d="M8.94116 14.9639C8.99603 14.9636 9.05089 14.9633 9.10742 14.963C9.2576 14.9622 9.40775 14.9627 9.55792 14.9636C9.71517 14.9643 9.87242 14.9639 10.0297 14.9637C10.2937 14.9635 10.5577 14.9642 10.8217 14.9654C11.1269 14.9667 11.432 14.9667 11.7372 14.966C12.0309 14.9653 12.3246 14.9656 12.6184 14.9663C12.7433 14.9666 12.8682 14.9666 12.9932 14.9663C13.1676 14.9659 13.342 14.9669 13.5164 14.9681C13.5683 14.9678 13.6202 14.9675 13.6737 14.9672C13.7211 14.9678 13.7686 14.9683 13.8175 14.9689C13.8794 14.969 13.8794 14.969 13.9425 14.9692C14.082 14.9968 14.1328 15.0515 14.2209 15.1606C14.2518 15.277 14.2456 15.3829 14.2209 15.5005C14.1415 15.6038 14.0815 15.6551 13.966 15.7129C13.8928 15.7173 13.8194 15.719 13.746 15.7194C13.6994 15.7198 13.6527 15.7202 13.6047 15.7205C13.5533 15.7207 13.5019 15.7209 13.4489 15.7211C13.395 15.7214 13.341 15.7218 13.2854 15.7221C13.1063 15.7232 12.9271 15.7239 12.7479 15.7245C12.6862 15.7247 12.6245 15.725 12.5629 15.7252C12.3064 15.7261 12.0499 15.7269 11.7933 15.7274C11.4256 15.7281 11.058 15.7295 10.6903 15.7319C10.4318 15.7335 10.1733 15.7344 9.91479 15.7346C9.76037 15.7348 9.60598 15.7353 9.45157 15.7366C9.27927 15.7382 9.10702 15.738 8.93471 15.7377C8.88357 15.7384 8.83244 15.7391 8.77975 15.7398C8.43515 15.7372 8.43515 15.7372 8.26321 15.6144C8.16407 15.4628 8.15695 15.3809 8.1887 15.2031C8.37427 14.9181 8.63402 14.961 8.94116 14.9639Z" fill="#B42315"/>
<path d="M11.3079 12.8185C11.3671 12.8181 11.3671 12.8181 11.4276 12.8177C11.4927 12.8177 11.4927 12.8177 11.5592 12.8176C11.6049 12.8174 11.6506 12.8172 11.6976 12.8169C11.8492 12.8163 12.0008 12.816 12.1524 12.8158C12.2575 12.8156 12.3626 12.8153 12.4677 12.8151C12.6883 12.8146 12.9089 12.8144 13.1295 12.8142C13.4123 12.814 13.6952 12.813 13.978 12.8118C14.1952 12.811 14.4123 12.8108 14.6295 12.8107C14.7338 12.8106 14.838 12.8102 14.9423 12.8097C15.0882 12.8089 15.234 12.809 15.3798 12.8093C15.423 12.8089 15.4662 12.8085 15.5107 12.8081C15.8817 12.8103 15.8817 12.8103 16.0479 12.9519C16.1362 13.0844 16.1448 13.1021 16.1275 13.2492C16.1248 13.2782 16.122 13.3071 16.1192 13.3369C16.0791 13.4512 16.0224 13.4832 15.9204 13.5466C15.8243 13.5628 15.8243 13.5628 15.7173 13.5631C15.6562 13.5637 15.6562 13.5637 15.5938 13.5643C15.5494 13.5642 15.505 13.564 15.4593 13.5638C15.3888 13.5642 15.3888 13.5642 15.3169 13.5646C15.1614 13.5654 15.0059 13.5653 14.8504 13.565C14.7425 13.5652 14.6346 13.5654 14.5267 13.5657C14.3004 13.5661 14.0741 13.566 13.8479 13.5655C13.5864 13.5651 13.3249 13.5657 13.0634 13.5668C12.8118 13.5679 12.5601 13.568 12.3084 13.5677C12.2014 13.5677 12.0943 13.5679 11.9873 13.5685C11.8378 13.5691 11.6883 13.5686 11.5388 13.5679C11.4722 13.5685 11.4722 13.5685 11.4042 13.5692C11.1057 13.5661 11.1057 13.5661 10.9665 13.4694C10.8818 13.3358 10.8652 13.2372 10.8652 13.0793C10.9913 12.8793 11.0773 12.8193 11.3079 12.8185Z" fill="#B42315"/>
<path d="M31.993 32.4337C32.2563 32.5486 32.4072 32.7538 32.5318 33.0064C32.6732 33.3688 32.6583 33.7709 32.5317 34.1356C32.4236 34.3786 32.2931 34.5586 32.0524 34.6802C31.7794 34.783 31.5115 34.7952 31.2426 34.6749C31.0849 34.5838 30.9712 34.4726 30.8736 34.3191C30.8569 34.294 30.8402 34.269 30.823 34.2431C30.6328 33.8999 30.6539 33.4594 30.7302 33.084C30.8319 32.7877 31.0313 32.6046 31.2937 32.443C31.5082 32.358 31.7728 32.3759 31.993 32.4337Z" fill="#FDFCFB"/>
<path d="M27.4697 32.4608C27.7735 32.6309 27.8965 32.8108 28.0273 33.1298C28.0618 33.2599 28.0618 33.2599 28.0698 33.3847C28.0719 33.4129 28.074 33.4411 28.0762 33.4702C28.0919 33.8285 28.0009 34.166 27.7724 34.4467C27.5678 34.6497 27.3881 34.7464 27.1007 34.76C26.8412 34.7531 26.652 34.6862 26.4673 34.5007C26.1542 34.1153 26.1111 33.7012 26.1581 33.2148C26.2387 32.8982 26.4343 32.6422 26.6971 32.4528C26.9477 32.3724 27.222 32.3621 27.4697 32.4608Z" fill="#FDFCFB"/>
<path d="M36.6932 32.5352C36.9723 32.7735 37.0997 33.0369 37.1298 33.3989C37.1396 33.7611 37.1193 34.1193 36.8976 34.4203C36.6163 34.6829 36.3714 34.7328 35.986 34.7208C35.7175 34.6848 35.5719 34.5718 35.4029 34.3672C35.1902 33.9583 35.1756 33.4382 35.3126 32.9998C35.426 32.7319 35.6163 32.5767 35.8622 32.4317C36.1484 32.3688 36.4385 32.3806 36.6932 32.5352Z" fill="#FDFCFB"/>
<path d="M17.9595 21.2354C18.1127 21.3813 18.2069 21.5323 18.2993 21.7212C18.3215 21.7661 18.3215 21.7661 18.3441 21.812C18.6029 22.3501 18.689 22.8517 18.6816 23.4443C18.1241 23.4213 17.577 23.3499 17.0249 23.2718C16.938 23.2596 16.851 23.2476 16.764 23.2355C16.5536 23.2063 16.3432 23.1767 16.1328 23.147C16.1328 23.1189 16.1328 23.0909 16.1328 23.062C16.1608 23.062 16.1889 23.062 16.2178 23.062C16.2285 23.0375 16.2391 23.013 16.2501 22.9878C16.3096 22.8796 16.377 22.8077 16.4645 22.7207C16.4976 22.6876 16.5308 22.6544 16.565 22.6202C16.6008 22.5849 16.6366 22.5495 16.6734 22.5131C16.7101 22.4766 16.7467 22.44 16.7845 22.4024C16.9016 22.2858 17.019 22.1694 17.1364 22.0531C17.2159 21.9741 17.2953 21.895 17.3747 21.816C17.5694 21.6222 17.7643 21.4287 17.9595 21.2354Z" fill="white"/>
<path d="M10.6029 17.0638C10.6456 17.0632 10.6883 17.0625 10.7322 17.0618C10.9275 17.0599 11.1228 17.0581 11.3181 17.0572C11.4212 17.0565 11.5242 17.0553 11.6273 17.0537C11.7757 17.0513 11.9241 17.0504 12.0726 17.0498C12.1186 17.0488 12.1646 17.0479 12.212 17.0469C12.5313 17.0478 12.5313 17.0478 12.6997 17.1717C12.7946 17.3107 12.8076 17.3742 12.7767 17.5393C12.7211 17.6518 12.7211 17.6518 12.6067 17.7517C12.4425 17.7841 12.2798 17.7804 12.1129 17.7784C12.0645 17.7785 12.0161 17.7786 11.9663 17.7787C11.864 17.7787 11.7617 17.7781 11.6595 17.7771C11.5028 17.7756 11.3463 17.7762 11.1896 17.777C11.0903 17.7767 10.9909 17.7763 10.8916 17.7758C10.8212 17.7761 10.8212 17.7761 10.7494 17.7764C10.7058 17.7757 10.6621 17.7751 10.6171 17.7744C10.5596 17.774 10.5596 17.774 10.5009 17.7736C10.3648 17.7447 10.3141 17.6887 10.2278 17.5818C10.1779 17.4253 10.1711 17.3574 10.2411 17.2074C10.3519 17.0638 10.4291 17.0664 10.6029 17.0638Z" fill="#B42315"/>
<path d="M11.6299 29.9014C11.8571 29.9844 11.9891 30.1101 12.0972 30.3262C12.1122 30.555 12.1152 30.6915 11.9698 30.8784C11.8498 31.0134 11.7687 31.0815 11.5838 31.0995C11.3168 31.1049 11.1842 31.0581 10.9821 30.8784C10.8587 30.7374 10.8505 30.5972 10.8535 30.4136C10.8805 30.2128 11.0049 30.0974 11.152 29.9704C11.3221 29.8854 11.4436 29.8708 11.6299 29.9014Z" fill="#B42315"/>
<path d="M19.4038 33.8097C19.4195 34.0657 19.4128 34.2635 19.2764 34.4894C19.0259 34.725 18.8342 34.7927 18.4931 34.7974C18.4222 34.7991 18.4222 34.7991 18.3499 34.8007C18.1999 34.7853 18.1219 34.749 18.0019 34.6594C17.9282 34.5118 17.9402 34.3534 17.9595 34.1921C18.0571 34.0049 18.1827 33.9389 18.3763 33.876C18.7129 33.79 19.0589 33.8049 19.4038 33.8097Z" fill="#FDFCFB"/>
<path d="M29.1458 15.3681C29.1939 15.3681 29.242 15.3681 29.2916 15.3681C29.4502 15.3681 29.6088 15.3685 29.7674 15.3688C29.8775 15.3689 29.9876 15.3689 30.0977 15.369C30.3577 15.3691 30.6177 15.3694 30.8776 15.3699C31.1737 15.3704 31.4698 15.3706 31.7659 15.3708C32.3747 15.3712 32.9835 15.372 33.5923 15.3729C33.5642 15.415 33.5362 15.457 33.5073 15.5004C33.4007 15.5161 33.4007 15.5161 33.2633 15.5157C33.1853 15.516 33.1853 15.516 33.1059 15.5162C33.048 15.5158 32.9901 15.5153 32.9322 15.5148C32.8715 15.5148 32.8108 15.5148 32.7501 15.5149C32.5851 15.5149 32.42 15.5142 32.2549 15.5133C32.0825 15.5125 31.9101 15.5124 31.7377 15.5123C31.411 15.5119 31.0844 15.5108 30.7578 15.5096C30.386 15.5081 30.0142 15.5074 29.6424 15.5068C28.8775 15.5055 28.1126 15.5032 27.3477 15.5004C27.3477 15.4864 27.3477 15.4723 27.3477 15.4579C27.3939 15.4563 27.3939 15.4563 27.4411 15.4547C27.5817 15.4497 27.7222 15.4445 27.8627 15.4393C27.9112 15.4376 27.9598 15.436 28.0098 15.4343C28.0804 15.4316 28.0804 15.4316 28.1525 15.4289C28.1956 15.4273 28.2388 15.4257 28.2832 15.4241C28.4068 15.4184 28.4068 15.4184 28.5149 15.3939C28.7256 15.3644 28.9334 15.3674 29.1458 15.3681Z" fill="#B52E24"/>
<path d="M21.4002 12.7817C21.5092 12.7935 21.5606 12.815 21.6402 12.8914C21.9166 13.2485 22.1734 13.6194 22.43 13.9908C22.501 14.0932 22.5724 14.1953 22.6439 14.2973C22.686 14.3576 22.7281 14.4179 22.7702 14.4783C22.7895 14.5056 22.8087 14.533 22.8286 14.5611C22.9245 14.6996 23.0024 14.8309 23.0569 14.9907C22.9108 14.8516 22.7942 14.7142 22.6852 14.5447C22.6565 14.5007 22.6279 14.4566 22.5983 14.4113C22.5833 14.3882 22.5682 14.3651 22.5527 14.3413C22.468 14.213 22.3801 14.0868 22.2923 13.9606C22.2754 13.9362 22.2585 13.9119 22.2411 13.8868C22.2015 13.8299 22.162 13.7731 22.1224 13.7163C22.0943 13.7584 22.0663 13.8004 22.0374 13.8438C21.9954 13.8157 21.9533 13.7877 21.91 13.7588C21.896 13.8149 21.8819 13.8709 21.8675 13.9287C21.7984 13.819 21.7294 13.7093 21.6604 13.5995C21.6409 13.5685 21.6213 13.5375 21.6012 13.5056C21.5823 13.4754 21.5634 13.4453 21.5439 13.4143C21.5179 13.3729 21.5179 13.3729 21.4913 13.3307C21.3842 13.1509 21.3435 13.0381 21.3577 12.8242C21.3717 12.8102 21.3858 12.7962 21.4002 12.7817Z" fill="#AB1B12"/>
<path d="M30.6185 11.2527C30.7392 11.3393 30.8199 11.4002 30.8455 11.5517C30.8473 11.675 30.8441 11.7784 30.7884 11.8899C30.6689 11.891 30.5494 11.8919 30.43 11.8925C30.3959 11.8929 30.3618 11.8932 30.3267 11.8936C30.2398 11.894 30.153 11.8921 30.0662 11.8899C30 11.8236 30.0118 11.7587 30.0078 11.6668C30.0091 11.5048 30.0178 11.4727 30.122 11.3376C30.2996 11.2054 30.4078 11.1937 30.6185 11.2527Z" fill="#B42315"/>
<path d="M20.3809 23.2744C20.3949 23.2744 20.4089 23.2744 20.4233 23.2744C20.4233 23.5828 20.4233 23.8912 20.4233 24.209C20.3118 24.0975 20.3136 24.0183 20.2906 23.8638C20.2835 23.8173 20.2764 23.7707 20.269 23.7228C20.2639 23.687 20.2587 23.6512 20.2534 23.6143C20.1736 23.694 20.1943 23.8283 20.187 23.9355C20.1835 23.9864 20.1799 24.0373 20.1763 24.0897C20.1737 24.129 20.1711 24.1684 20.1685 24.209C20.1404 24.209 20.1124 24.209 20.0835 24.209C20.0835 23.9707 20.0835 23.7324 20.0835 23.4868C20.1256 23.4868 20.1676 23.4868 20.2109 23.4868C20.225 23.4588 20.239 23.4307 20.2534 23.4019C20.2815 23.4019 20.3095 23.4019 20.3384 23.4019C20.3524 23.3598 20.3664 23.3177 20.3809 23.2744Z" fill="#AA150E"/>
<path d="M19.4463 35.1689C19.4463 35.3091 19.4463 35.4493 19.4463 35.5938C19.7968 35.5938 20.1472 35.5938 20.5083 35.5938C20.5083 35.6078 20.5083 35.6218 20.5083 35.6362C20.1438 35.6362 19.7793 35.6362 19.4038 35.6362C19.3758 35.5521 19.3477 35.468 19.3188 35.3813C19.2768 35.3813 19.2347 35.3813 19.1914 35.3813C19.3985 35.1689 19.3985 35.1689 19.4463 35.1689Z" fill="#950100"/>
<path d="M14.8159 19.7908C15.5745 19.7751 15.5745 19.7751 15.9204 19.8758C15.9204 19.8898 15.9204 19.9038 15.9204 19.9183C15.5439 19.9324 15.1873 19.8894 14.8159 19.8333C14.8159 19.8193 14.8159 19.8053 14.8159 19.7908Z" fill="#A7100A"/>
<path d="M20.2534 23.5718C20.2674 23.5718 20.2815 23.5718 20.2959 23.5718C20.3099 23.754 20.3239 23.9363 20.3384 24.124C20.2817 24.124 20.2251 24.124 20.1685 24.124C20.1662 24.0479 20.1645 23.9718 20.1631 23.8957C20.1622 23.8533 20.1612 23.8109 20.1602 23.7673C20.1685 23.6567 20.1685 23.6567 20.2534 23.5718Z" fill="#B62B1D"/>
<path d="M19.4463 35.1689C19.4463 35.3091 19.4463 35.4493 19.4463 35.5938C19.4183 35.5938 19.3902 35.5938 19.3613 35.5938C19.3473 35.5237 19.3333 35.4536 19.3188 35.3813C19.2768 35.3813 19.2347 35.3813 19.1914 35.3813C19.3985 35.1689 19.3985 35.1689 19.4463 35.1689Z" fill="#FDFCFB"/>
<path d="M11.0352 12.8667C11.0632 12.8807 11.0912 12.8947 11.1201 12.9092C11.1061 12.9512 11.0921 12.9933 11.0776 13.0366C11.0356 13.0366 10.9935 13.0366 10.9502 13.0366C10.9502 13.1348 10.9502 13.2329 10.9502 13.334C10.9222 13.32 10.8941 13.3059 10.8652 13.2915C10.8914 13.0144 10.8914 13.0144 10.9741 12.9118C11.0043 12.8895 11.0043 12.8895 11.0352 12.8667Z" fill="#B42315"/>
<path d="M19.5312 18.4741C19.7205 18.5162 19.7205 18.5162 19.9136 18.5591C19.9136 18.6011 19.9136 18.6432 19.9136 18.6865C19.7391 18.6361 19.6632 18.606 19.5312 18.4741Z" fill="#B72C21"/>
<path d="M12.8618 20.5557C12.8899 20.5697 12.9179 20.5837 12.9468 20.5981C12.8837 20.7033 12.8837 20.7033 12.8193 20.8105C12.7633 20.7825 12.7072 20.7545 12.6494 20.7256C12.7195 20.6695 12.7896 20.6134 12.8618 20.5557Z" fill="#AB1A11"/>
</svg>
