<svg width="26" height="26" viewBox="0 0 26 26" fill="none" xmlns="http://www.w3.org/2000/svg">
<path d="M12.381 5.57178H6.80956C6.15284 5.57178 5.52301 5.83266 5.05863 6.29704C4.59426 6.76141 4.33337 7.39124 4.33337 8.04797V19.1908C4.33337 19.8476 4.59426 20.4774 5.05863 20.9418C5.52301 21.4061 6.15284 21.667 6.80956 21.667H19.1905C19.8472 21.667 20.4771 21.4061 20.9414 20.9418C21.4058 20.4774 21.6667 19.8476 21.6667 19.1908V13.6194" stroke="white" stroke-linecap="round" stroke-linejoin="round"/>
<path d="M19.1905 6.80963L20.3704 8.04773M21.6667 4.29259C21.9974 4.63357 22.1805 5.09099 22.1766 5.56595C22.1727 6.04091 21.9819 6.49523 21.6457 6.83068L13.0001 15.4763L9.28577 16.7144L10.5239 13.0001L19.1744 4.27649C19.4787 3.97029 19.8856 3.78766 20.3166 3.76388C20.7476 3.7401 21.1721 3.87685 21.5082 4.14773L21.6667 4.29259Z" stroke="white" stroke-linecap="round" stroke-linejoin="round"/>
</svg>
