<svg width="93" height="94" viewBox="0 0 93 94" fill="none" xmlns="http://www.w3.org/2000/svg">
<path d="M56.1875 39.1694C60.5007 41.3747 63.9636 45.0041 65.9531 49.437L66.3682 50.3599C66.4868 50.6213 66.5874 50.84 66.6748 51.0239C66.7612 51.2055 66.8263 51.3348 66.876 51.4272C66.9282 51.5244 66.9457 51.5483 66.9346 51.5327L67.1143 51.769C67.2716 51.9626 67.3667 52.0374 67.4287 52.0776C67.5115 52.1312 67.6746 52.2137 68.1289 52.3052L68.2715 52.3228C68.466 52.3374 68.8513 52.3433 69.75 52.3433C77.2404 52.3433 83.3125 58.4154 83.3125 65.9058L83.3076 66.2554C83.1251 73.4679 77.3122 79.2809 70.0996 79.4634L69.75 79.4683H23.2246L22.9248 79.4644H22.9131L22.9014 79.4634C15.6863 79.2807 9.87142 73.4656 9.69141 66.2505L9.6875 65.9058C9.6875 58.4154 15.7596 52.3433 23.25 52.3433C24.4473 52.3433 24.7334 52.3329 24.8711 52.3052L25.1602 52.2388C25.4017 52.1744 25.5092 52.1178 25.5713 52.0776C25.654 52.024 25.7962 51.9094 26.0654 51.5327L26.124 51.4272C26.1737 51.3348 26.2388 51.2055 26.3252 51.0239C26.5 50.6562 26.7267 50.1504 27.0469 49.437L27.3711 48.7485C29.4008 44.6286 32.725 41.2604 36.8125 39.1704V43.6558C34.2752 45.354 32.2073 47.6998 30.8477 50.4595L30.583 51.0239C30.2707 51.7198 30.0227 52.2715 29.8252 52.687C29.6883 52.9748 29.5414 53.2726 29.3818 53.5356L29.2178 53.7856C28.8024 54.3668 28.328 54.909 27.6768 55.3306C27.1067 55.6995 26.5076 55.9068 25.8975 56.0474L25.6357 56.104C25.0164 56.2287 24.2189 56.2183 23.25 56.2183C17.8997 56.2183 13.5625 60.5555 13.5625 65.9058L13.5752 66.397C13.8266 71.4299 17.919 75.4516 22.9805 75.5894L23.2754 75.5933H69.75L70.248 75.5806C75.3668 75.3213 79.4375 71.089 79.4375 65.9058C79.4375 60.5555 75.1003 56.2183 69.75 56.2183C68.902 56.2183 68.1854 56.2266 67.6045 56.145L67.3643 56.104C66.6638 55.963 65.9746 55.7521 65.3232 55.3306C64.7535 54.9618 64.3194 54.5003 63.9414 54.0015L63.7822 53.7856C63.5578 53.4717 63.3572 53.0707 63.1748 52.687C63.076 52.4792 62.9645 52.2374 62.8389 51.9604L62.417 51.0239C61.0687 48.0199 58.8956 45.4687 56.1875 43.6558V39.1694Z" fill="#999999"/>
<path d="M46.5 11.6548L45.13 10.2848L46.5 8.91475L47.87 10.2848L46.5 11.6548ZM48.4375 50.4048C48.4375 51.4748 47.5701 52.3423 46.5 52.3423C45.43 52.3423 44.5625 51.4748 44.5625 50.4048L48.4375 50.4048ZM31 27.1548L29.63 25.7848L45.13 10.2848L46.5 11.6548L47.87 13.0248L32.37 28.5248L31 27.1548ZM46.5 11.6548L47.87 10.2848L63.37 25.7848L62 27.1548L60.63 28.5248L45.13 13.0248L46.5 11.6548ZM46.5 11.6548L48.4375 11.6548L48.4375 50.4048L46.5 50.4048L44.5625 50.4048L44.5625 11.6548L46.5 11.6548Z" fill="#999999"/>
</svg>
