<svg width="26" height="27" viewBox="0 0 26 27" fill="none" xmlns="http://www.w3.org/2000/svg">
<rect x="0.5" y="0.851196" width="25" height="25" rx="12.5" stroke="#C267FF"/>
<path d="M19.3626 12.7146C19.5652 12.9988 19.6666 13.1409 19.6666 13.3512C19.6666 13.5616 19.5652 13.7037 19.3626 13.9879C18.4519 15.2649 16.1261 18.0179 12.9999 18.0179C9.87377 18.0179 7.54798 15.2649 6.63728 13.9879C6.43459 13.7037 6.33325 13.5616 6.33325 13.3512C6.33325 13.1409 6.43459 12.9988 6.63728 12.7146C7.54798 11.4375 9.87377 8.68457 12.9999 8.68457C16.1261 8.68457 18.4519 11.4375 19.3626 12.7146Z" stroke="#C267FF"/>
<path d="M15 13.3512C15 12.2466 14.1046 11.3512 13 11.3512C11.8954 11.3512 11 12.2466 11 13.3512C11 14.4558 11.8954 15.3512 13 15.3512C14.1046 15.3512 15 14.4558 15 13.3512Z" stroke="#C267FF"/>
</svg>
