<svg width="32" height="32" viewBox="0 0 32 32" fill="none" xmlns="http://www.w3.org/2000/svg">
<path d="M3.37315 19.6932C3.08961 21.5519 4.35725 22.842 5.90932 23.4849C11.8597 25.9499 20.1402 25.9499 26.0905 23.4849C27.6426 22.842 28.9102 21.5519 28.6267 19.6932C28.4524 18.5509 27.5908 17.5997 26.9524 16.6709C26.1163 15.4393 26.0332 14.0961 26.0331 12.667C26.0331 7.14414 21.5411 2.66699 15.9999 2.66699C10.4588 2.66699 5.96675 7.14414 5.96675 12.667C5.96663 14.0961 5.88355 15.4393 5.0474 16.6709C4.40904 17.5997 3.5474 18.5509 3.37315 19.6932Z" stroke="#B0B0B0" stroke-width="1.5" stroke-linecap="round" stroke-linejoin="round"/>
<path d="M10.6665 25.334C11.2778 27.6343 13.4339 29.334 15.9998 29.334C18.5658 29.334 20.7219 27.6343 21.3332 25.334" stroke="#B0B0B0" stroke-width="1.5" stroke-linecap="round" stroke-linejoin="round"/>
</svg>
