<svg width="16" height="18" viewBox="0 0 16 18" fill="none" xmlns="http://www.w3.org/2000/svg">
<path d="M14.4101 2.69671C15 3.65963 15 5.00009 15 7.68101C15 10.3619 15 11.7024 14.4101 12.6653C14.1548 13.0822 13.8267 13.4401 13.4445 13.7186C12.6733 14.2807 11.638 14.3517 9.75 14.3607V14.362L8.78262 16.4724C8.46016 17.1759 7.53984 17.1759 7.21738 16.4724L6.25 14.362V14.3607C4.36201 14.3517 3.32669 14.2807 2.5555 13.7186C2.17334 13.4401 1.84521 13.0822 1.58986 12.6653C1 11.7024 1 10.3619 1 7.68101C1 5.00009 1 3.65963 1.58986 2.69671C1.84521 2.27985 2.17334 1.92194 2.5555 1.6434C3.43829 1 4.66719 1 7.125 1H8.875C11.3328 1 12.5617 1 13.4445 1.6434C13.8267 1.92194 14.1548 2.27985 14.4101 2.69671Z" stroke="#F4B549" stroke-linecap="round" stroke-linejoin="round"/>
</svg>
